<?xml version="1.0" encoding="iso-8859-1"?>
<!-- Generator: Adobe Illustrator 19.0.0, SVG Export Plug-In . SVG Version: 6.00 Build 0)  -->
<svg version="1.1" id="Capa_1" xmlns="http://www.w3.org/2000/svg" xmlns:xlink="http://www.w3.org/1999/xlink" x="0px" y="0px"
	 viewBox="0 0 512 512" style="enable-background:new 0 0 512 512;" xml:space="preserve">
<polygon style="fill:#3A96FF;" points="212,255.001 362,255.001 362,315.001 212,315.001 182,287.345 "/>
<path style="fill:#66BB00;" d="M106,220.363v78.126c42.528-7.174,76-43.92,76-88.488v-30
	C150.656,180.001,122.117,196.061,106,220.363z"/>
<path style="fill:#70DA40;" d="M106,261.781c-18.314-30.84-52.61-51.78-91-51.78H0v45c0,57.891,48.109,105,106,105V261.781z"/>
<rect x="91" y="165.001" style="fill:#66BB00;" width="30" height="240"/>
<rect x="106" y="165.001" style="fill:#5CAC00;" width="15" height="240"/>
<polygon style="fill:#FF415B;" points="152,0.001 152,52.501 61,67.501 61,0.001 "/>
<polygon style="fill:#55696E;" points="212,390.001 182,512 30,512 0,390.001 "/>
<polygon style="fill:#323C3C;" points="212,390.001 182,512 106,512 106,390.001 "/>
<polygon style="fill:#FC0023;" points="152,0.001 152,52.501 106,60.001 106,0.001 "/>
<path style="fill:#FF6379;" d="M106,44.701l-75,18.6v41.7c0,41.4,33.6,75,75,75s76-33.6,76-75v-79.2L106,44.701z"/>
<path style="fill:#FF415B;" d="M106,180.001v-135.3l76-18.9v79.2C182,146.4,147.4,180.001,106,180.001z"/>
<polygon style="fill:#73BCFF;" points="212,315.001 152,345.001 152,225.001 212,255.001 "/>
<g>
	<path style="fill:#55696E;" d="M478.255,176.551l-23.513-18.624c27.345-34.513,24.445-84.066-6.743-115.254
		c-11.373-11.373-27.356-15.382-42.748-10.721c-15.485,4.651-26.506,16.873-29.634,32.638L346.2,58.707
		c5.355-26.796,24.238-47.523,50.35-55.467c26.175-7.924,53.333-1.108,72.661,18.22C511.173,63.421,515.067,130.085,478.255,176.551
		z"/>
	<path style="fill:#55696E;" d="M360.909,40.436l8.697,33.73l-33.304-9.123c-22.487-2.97-53.67,11.244-70.853,28.426
		c-17.183,17.183-31.396,48.365-28.426,70.853l8.486,33.941l-33.093-9.334c-13.152-36.911,2.333-87.186,31.82-116.673
		S323.998,27.284,360.909,40.436z"/>
</g>
<path style="fill:#323C3C;" d="M244.237,72.256l21.213,21.213c-17.183,17.183-31.396,48.365-28.426,70.853l8.486,33.941
	l-33.093-9.334C199.265,152.018,214.75,101.743,244.237,72.256z"/>
<path style="fill:#9EE0FF;" d="M360.909,40.436l137.886,137.886c17.606,17.606,17.607,46.032,0,63.64l-84.853,84.853
	c-17.607,17.607-46.034,17.606-63.64,0L212.417,188.928L360.909,40.436z"/>
<path style="fill:#73BCFF;" d="M286.663,114.682l169.706,169.706l-42.426,42.426c-17.607,17.607-46.034,17.606-63.64,0
	L212.417,188.928L286.663,114.682z"/>
<path style="fill:#EDE9E8;" d="M342.452,153.077l-21.424-4.031l4.031,21.424c2.97,16.972,11.667,57.913,25.244,71.49
	c17.606,17.606,46.032,17.607,63.64,0c17.607-17.607,17.606-46.034,0-63.64C400.365,164.745,359.424,156.048,342.452,153.077z"/>
<path style="fill:#DFD7D5;" d="M325.059,170.471l-4.031-21.424l92.914,92.914c-17.607,17.607-46.034,17.606-63.64,0
	C336.726,228.385,328.029,187.443,325.059,170.471z"/>
<g>
</g>
<g>
</g>
<g>
</g>
<g>
</g>
<g>
</g>
<g>
</g>
<g>
</g>
<g>
</g>
<g>
</g>
<g>
</g>
<g>
</g>
<g>
</g>
<g>
</g>
<g>
</g>
<g>
</g>
</svg>
