<?xml version="1.0" encoding="iso-8859-1"?>
<!-- Generator: Adobe Illustrator 19.0.0, SVG Export Plug-In . SVG Version: 6.00 Build 0)  -->
<svg version="1.1" id="Capa_1" xmlns="http://www.w3.org/2000/svg" xmlns:xlink="http://www.w3.org/1999/xlink" x="0px" y="0px"
	 viewBox="0 0 512 512" style="enable-background:new 0 0 512 512;" xml:space="preserve">
<path style="fill:#DDDDDD;" d="M434.416,174.641l-36.81,14.374l-2.179-0.381v34.356l1.484-0.207l35.955,15.47
	c3.194,1.374,6.763-0.924,6.834-4.4l1.111-54.749C440.877,175.764,437.528,173.425,434.416,174.641z"/>
<path style="fill:#DADADA;" d="M395.426,195.975v27.016l1.484-0.207l35.955,15.47c3.194,1.374,6.763-0.924,6.834-4.4l0.379-18.666
	L395.426,195.975z"/>
<path style="fill:#DDDDDD;" d="M285.968,3.967c-7.576-5.737-18.369-4.246-24.106,3.33l-7.845,10.359l27.436,20.776l7.845-10.359
	C295.035,20.497,293.544,9.704,285.968,3.967z"/>
<path style="fill:#DADADA;" d="M275.64,18.221c3.877-5.12,10.062-7.448,16.004-6.658c-4.747-12.491-21.566-15.116-29.783-4.265
	l-7.844,10.36l14.014,10.612L275.64,18.221z"/>
<path style="fill:#DDDDDD;" d="M130.871,16.551C113.515,3.409,92.048-2.182,70.421,0.802C-3.671,11.04-26.141,108.261,36.58,149.738
	l0.355,0.235l20.201-20.679c-0.209-0.205-24.534-11.007-28.584-40.333c-4.055-29.357,16.347-56.308,45.71-60.364
	c37.858-5.221,54.29,27.383,54.393,27.483l20.212-20.691C148.409,34.827,142.557,25.399,130.871,16.551z"/>
<path style="fill:#DADADA;" d="M36.278,13.71c-48.416,32.292-48.425,103.804,0.302,136.027l0.355,0.235l19.631-20.095
	C17.857,103.933,8.82,51.008,36.278,13.71z"/>
<path style="fill:#BC3535;" d="M298.459,62.492c-1.176-8.518-5.573-16.048-12.381-21.202l-36.065-27.31
	c-14.109-10.683-34.282-7.899-44.967,6.212l-3.047,4.025l87.244,66.065C290.377,88.178,300.725,78.892,298.459,62.492z"/>
<path style="fill:#BC2828;" d="M261.11,22.383l-11.097-8.403c-14.109-10.683-34.282-7.899-44.967,6.212l-3.047,4.025l20.367,15.423
	C222.728,39.36,235.637,18.469,261.11,22.383z"/>
<polygon style="fill:#DADADA;" points="278.532,168.217 397.606,189.016 396.91,222.783 234.002,245.533 "/>
<polygon style="fill:#A9A9AA;" points="249.995,217.764 234.002,245.533 396.91,222.783 397.438,197.175 "/>
<path style="fill:#E83D3D;" d="M166.994,16.393L30.876,155.735c-7.411,7.586-6.488,19.953,1.967,26.355l150.301,113.814
	c8.455,6.402,20.608,3.938,25.901-5.252l97.219-168.798c4.43-7.692,2.446-17.478-4.631-22.837L190.231,14.659
	C183.154,9.3,173.197,10.043,166.994,16.393z"/>
<g>
	<path style="fill:#BC3535;" d="M48.747,174.785L190.01,30.175c3.649-3.736,8.551-5.597,13.45-5.499l-13.229-10.017
		c-7.077-5.359-17.035-4.615-23.237,1.734L30.876,155.735c-7.411,7.586-6.488,19.953,1.967,26.355l10.933,8.279
		C42.93,184.908,44.53,179.102,48.747,174.785z"/>
	<path style="fill:#BC3535;" d="M30.876,155.735c-7.411,7.586-6.488,19.953,1.967,26.355l150.301,113.814
		c8.455,6.402,20.608,3.938,25.901-5.252l10.744-18.655L45.919,140.335L30.876,155.735z"/>
</g>
<path style="fill:#BC2828;" d="M31.575,181.016c0.405,0.371,0.82,0.735,1.268,1.074l3.345,2.533l7.588,5.746
	c-0.846-5.462,0.754-11.268,4.971-15.585l18.141-18.57l-20.969-15.878l-15.043,15.399c-3.705,3.793-5.327,8.781-4.966,13.621
	c0.181,2.42,0.857,4.803,2.017,6.982c0.87,1.634,2.011,3.152,3.419,4.484C31.418,180.891,31.502,180.949,31.575,181.016z"/>
<path style="fill:#91CBF2;" d="M175.878,177.053c-12.323-0.601-22.714-8.399-26.665-20.192c-5.307-15.842,3.921-33.28,19.786-38.518
	l30.574-10.095c4.784-1.579,9.668,2.119,9.444,7.152l-1.428,32.166C206.849,164.257,192.565,177.867,175.878,177.053z"/>
<path style="fill:#69BDE2;" d="M180.203,138.285c25.557-20.287,24.949-21.529,28.771-21.913l0.043-0.972
	c0.223-5.033-4.661-8.731-9.444-7.151l-30.575,10.095c-22.881,7.555-29.064,37.792-9.635,52.817
	c3.739,2.772,8.155,4.686,12.969,5.492C165.547,164.051,168.734,147.63,180.203,138.285z"/>
<path style="fill:#843A24;" d="M189.932,403.357c-18.598-10.799-40.204-16.987-63.258-16.987
	c-63.497,0-116.035,46.905-124.865,107.956c-1.345,9.3,5.795,17.655,15.191,17.655h110.02
	C127.225,465.586,152.468,425.11,189.932,403.357z"/>
<g>
	<path style="fill:#AA563C;" d="M316.448,403.357c-18.598-10.799-40.204-16.987-63.258-16.987
		c-69.496,0-125.864,56.186-126.17,125.611h126.516C253.741,465.586,278.985,425.11,316.448,403.357z"/>
	<path style="fill:#AA563C;" d="M512,497.401V392.148c0-3.191-2.586-5.778-5.777-5.779l0,0c-69.496,0-125.864,56.186-126.17,125.611
		H497.42C505.472,511.98,512,505.453,512,497.401z"/>
</g>
<path style="fill:#843A24;" d="M442.965,403.357c-83.063-48.23-188.999,11.185-189.428,108.624h126.517
	C380.257,465.586,405.501,425.11,442.965,403.357z"/>
<path style="fill:#772E1D;" d="M27.54,494.325c8.228-56.883,54.402-101.479,112.028-107.302c-4.239-0.431-8.541-0.653-12.894-0.653
	c-63.497,0-116.035,46.905-124.865,107.955C0.464,503.625,7.604,511.98,17,511.98h25.731
	C33.335,511.98,26.195,503.625,27.54,494.325z"/>
<g>
	<path style="fill:#93482B;" d="M266.049,387.018c-4.228-0.428-8.517-0.648-12.859-0.648c-69.496,0-125.864,56.186-126.17,125.611
		h25.731C153.038,446.897,202.595,393.448,266.049,387.018z"/>
	<path style="fill:#93482B;" d="M510.437,388.204c-1.054-1.126-2.549-1.834-4.214-1.835c-69.496,0-125.864,56.186-126.17,125.611
		h25.731C406.058,449.885,451.184,398.386,510.437,388.204z"/>
</g>
<path style="fill:#772E1D;" d="M392.565,387.018c-74.473-7.542-138.701,50.681-139.029,124.962h25.731
	C279.555,446.897,329.111,393.448,392.565,387.018z"/>
<g>
	<path style="fill:#93482B;" d="M69.756,470.19c-0.779-1.155-1.297-2.721-1.297-4.282c0-2.038,0.824-4.025,2.265-5.455
		c0.35-0.361,0.751-0.69,1.173-0.968c0.412-0.277,0.864-0.515,1.328-0.71c0.463-0.186,0.957-0.34,1.441-0.433
		c2.521-0.504,5.187,0.32,6.968,2.111c1.441,1.43,2.264,3.416,2.264,5.455c0,0.96-0.188,1.966-0.597,2.954
		c-0.384,0.961-0.992,1.845-1.667,2.501C79.544,473.468,73.076,475.057,69.756,470.19z"/>
	<path style="fill:#93482B;" d="M107.488,439.663c-0.504,0-1.009-0.051-1.513-0.155c-0.484-0.092-0.978-0.246-1.441-0.432
		c-0.463-0.195-0.916-0.432-1.328-0.71c-0.422-0.288-0.824-0.608-1.173-0.968c-0.36-0.35-0.679-0.751-0.967-1.173
		c-0.278-0.412-0.515-0.864-0.7-1.328c-0.195-0.473-0.35-0.958-0.442-1.451c-0.103-0.495-0.155-0.998-0.155-1.503
		s0.052-1.009,0.155-1.513c0.092-0.484,0.247-0.978,0.442-1.441c0.185-0.463,0.422-0.916,0.7-1.328
		c0.288-0.422,0.607-0.823,0.967-1.173c0.35-0.361,0.751-0.679,1.173-0.968c0.412-0.277,0.864-0.515,1.328-0.71
		c0.463-0.186,0.957-0.34,1.441-0.433c2.511-0.504,5.177,0.31,6.968,2.111c1.441,1.43,2.264,3.427,2.264,5.455
		c0,0.505-0.051,1.008-0.154,1.503c-0.092,0.493-0.247,0.978-0.442,1.451c-0.185,0.463-0.433,0.916-0.711,1.328
		c-0.277,0.422-0.597,0.823-0.957,1.173C111.512,438.839,109.515,439.663,107.488,439.663z"/>
</g>
<g>
	<path style="fill:#BC6650;" d="M198.998,473.628c-0.504,0-1.009-0.051-1.503-0.155c-0.494-0.092-0.978-0.246-1.441-0.442
		c-0.473-0.185-0.916-0.422-1.338-0.7c-0.422-0.288-0.813-0.608-1.173-0.968c-0.35-0.35-0.679-0.751-0.957-1.173
		c-0.278-0.412-0.515-0.864-0.71-1.328c-0.195-0.473-0.34-0.958-0.443-1.451c-0.103-0.495-0.154-0.998-0.154-1.503
		c0-2.038,0.824-4.025,2.265-5.455c0.36-0.361,0.751-0.69,1.173-0.968c0.422-0.277,0.865-0.515,1.338-0.71
		c0.463-0.186,0.947-0.34,1.441-0.433c0.999-0.205,2.017-0.205,3.016,0c0.494,0.093,0.977,0.247,1.441,0.433
		c0.463,0.195,0.916,0.432,1.338,0.71c0.422,0.278,0.813,0.607,1.173,0.968c1.431,1.43,2.254,3.416,2.254,5.455
		c0,0.505-0.051,1.008-0.144,1.503c-0.103,0.494-0.247,0.978-0.442,1.451c-0.195,0.463-0.432,0.916-0.71,1.328
		c-1.124,1.708-2.954,2.917-4.91,3.283C200.017,473.577,199.503,473.628,198.998,473.628z"/>
	<path style="fill:#BC6650;" d="M230.308,439.663c-0.504,0-1.009-0.051-1.503-0.155c-0.494-0.092-0.977-0.246-1.451-0.432
		c-0.463-0.195-0.906-0.432-1.328-0.71c-0.422-0.288-0.824-0.608-1.173-0.968c-0.36-0.35-0.679-0.751-0.957-1.173
		c-0.278-0.412-0.515-0.864-0.71-1.328c-0.195-0.473-0.34-0.958-0.443-1.451c-0.103-0.495-0.154-0.998-0.154-1.503
		s0.052-1.009,0.154-1.513c0.103-0.484,0.247-0.978,0.443-1.441s0.432-0.916,0.71-1.328c0.278-0.422,0.597-0.823,0.957-1.173
		c0.35-0.361,0.751-0.679,1.173-0.968c0.422-0.277,0.864-0.515,1.328-0.71c0.473-0.186,0.957-0.34,1.451-0.433
		c0.999-0.205,2.017-0.205,3.016,0c0.494,0.093,0.977,0.247,1.441,0.433c0.473,0.195,0.916,0.432,1.338,0.71
		c0.422,0.288,0.813,0.607,1.173,0.968c0.35,0.35,0.679,0.751,0.957,1.173c0.278,0.412,0.515,0.864,0.71,1.328
		c0.195,0.463,0.34,0.957,0.443,1.441c0.092,0.504,0.144,1.008,0.144,1.513s-0.051,1.008-0.144,1.503
		c-0.103,0.493-0.247,0.978-0.443,1.451c-0.195,0.463-0.432,0.916-0.71,1.328c-0.278,0.422-0.608,0.823-0.957,1.173
		c-0.36,0.36-0.751,0.679-1.173,0.968c-0.422,0.277-0.864,0.515-1.338,0.71c-0.463,0.186-0.947,0.34-1.441,0.432
		C231.327,439.611,230.812,439.663,230.308,439.663z"/>
</g>
<g>
	<path style="fill:#93482B;" d="M317.536,472.331c-1.698-1.162-2.847-2.832-3.283-4.92c-0.508-2.719,0.411-5.259,2.11-6.957
		c0.36-0.361,0.751-0.69,1.173-0.968c0.422-0.277,0.875-0.515,1.338-0.71c0.463-0.186,0.947-0.34,1.441-0.433
		c0.998-0.205,2.027-0.205,3.016,0c0.494,0.093,0.978,0.247,1.441,0.433c0.473,0.195,0.916,0.432,1.338,0.71
		c0.422,0.278,0.813,0.607,1.173,0.968c1.441,1.43,2.264,3.416,2.264,5.455c0,0.505-0.051,1.008-0.154,1.503
		c-0.103,0.494-0.247,0.978-0.442,1.451c-0.196,0.463-0.433,0.916-0.711,1.328c-0.556,0.846-1.269,1.553-2.13,2.141
		c-0.876,0.575-1.918,0.981-2.779,1.142C322.368,473.675,319.219,473.437,317.536,472.331z"/>
	<path style="fill:#93482B;" d="M346.715,436.225c-0.278-0.412-0.515-0.864-0.71-1.328c-0.195-0.473-0.34-0.958-0.443-1.451
		c-0.092-0.495-0.144-0.998-0.144-1.503c0-2.027,0.823-4.025,2.254-5.455c1.801-1.801,4.467-2.614,6.968-2.111
		c0.937,0.177,1.873,0.547,2.779,1.143c5.206,3.557,4.275,11.197-1.328,13.555c-0.473,0.186-0.957,0.34-1.451,0.432
		C351.827,440.097,348.62,439.016,346.715,436.225z"/>
</g>
<g>
	<path style="fill:#BC6650;" d="M443.145,473.473c-1.36-0.255-2.864-0.99-3.952-2.11c-1.352-1.312-2.265-3.356-2.265-5.455
		c0-2.96,1.726-5.852,4.765-7.132c3.08-1.236,6.36-0.384,8.409,1.678C455.489,465.8,450.581,475.031,443.145,473.473z"/>
	<path style="fill:#BC6650;" d="M471.676,438.366c-1.795-1.227-2.924-3.002-3.283-4.92c-0.714-3.429,1.073-7.146,4.611-8.635
		c5.869-2.358,11.74,2.774,10.519,8.635c-0.285,1.523-1.094,2.967-2.11,3.952C479.641,439.183,474.642,440.365,471.676,438.366z"/>
</g>
<g>
	<path style="fill:#897067;" d="M380.053,411.528c-4.263,0-7.719-3.456-7.719-7.719v-89.932c0-4.264,3.456-7.719,7.719-7.719
		s7.719,3.456,7.719,7.719v89.932C387.772,408.073,384.316,411.528,380.053,411.528z"/>
	<path style="fill:#897067;" d="M255.816,411.528c-4.263,0-7.719-3.456-7.719-7.719v-47.976c0-4.264,3.456-7.719,7.719-7.719
		c4.263,0,7.719,3.456,7.719,7.719v47.976C263.535,408.073,260.079,411.528,255.816,411.528z"/>
	<path style="fill:#897067;" d="M132.166,411.528c-4.263,0-7.719-3.456-7.719-7.719v-23.223c0-4.264,3.456-7.719,7.719-7.719
		s7.719,3.456,7.719,7.719v23.223C139.886,408.073,136.43,411.528,132.166,411.528z"/>
</g>
<path style="fill:#9AD14B;" d="M431.09,328.468c-13.465-2.508-27.041,4.696-32.519,17.236c-1.953,4.47,0.875,9.592,5.675,10.461
	c1.734,0.314,3.485,0.471,5.234,0.471c11.439,0,22.35-6.768,27.14-17.735C438.549,334.485,435.827,329.351,431.09,328.468z"/>
<path style="fill:#8DC133;" d="M417.559,341.224c5.921-3.138,12.645-4.213,19.298-2.966c1.416-4.258-1.258-8.95-5.766-9.79
	c-13.465-2.508-27.041,4.696-32.519,17.236c-1.926,4.409,0.804,9.445,5.485,10.415C405.713,351.154,410.737,344.841,417.559,341.224
	z"/>
<path style="fill:#9AD14B;" d="M329.765,328.339c-5.252,0.839-8.219,6.438-5.966,11.255c5.556,11.877,18.562,18.833,31.674,16.638
	c5.155-0.863,7.964-6.484,5.749-11.218C355.667,333.138,342.735,326.266,329.765,328.339z"/>
<path style="fill:#8DC133;" d="M331.367,328.148c-0.535,0.056-1.07,0.105-1.602,0.19c-5.252,0.839-8.219,6.438-5.966,11.255
	c5.531,11.824,18.502,18.843,31.674,16.638c5.018-0.84,7.799-6.187,5.901-10.837C348.024,346.782,335.662,338.675,331.367,328.148z"
	/>
<g>
	<path style="fill:#9AD14B;" d="M384.921,322.617c9.915-11.172,9.777-27.864,0.356-38.87c-3.009-3.515-8.504-3.384-11.341,0.271
		c-4.135,5.326-6.333,11.913-6.167,18.843C368.036,314.059,377.075,330.463,384.921,322.617z"/>
	<path style="fill:#9AD14B;" d="M252.816,358.599c0.382,0.31,3.313,2.502,6.88-0.032c10.9-11.147,11.045-28.52,1.406-39.855
		c-3.029-3.562-8.605-3.429-11.461,0.274c-4.097,5.313-6.274,11.87-6.109,18.767C243.723,345.779,247.066,353.188,252.816,358.599z"
		/>
	<path style="fill:#9AD14B;" d="M129.392,379.404c0.04,0.028,3.142,2.203,6.405,0c5.726-5.72,8.85-13.444,8.654-21.652
		c-0.174-7.306-2.955-14.106-7.79-19.348c-2.686-2.913-7.379-2.8-9.922,0.237c-4.579,5.468-7.031,12.393-6.857,19.697
		C120.076,366.471,123.501,373.976,129.392,379.404z"/>
</g>
<g>
	<path style="fill:#8DC133;" d="M391.192,294.739c-1.206,4.207-3.331,8.097-6.271,11.409c-6.497,6.498-13.625-3.973-15.994-12.204
		c-2.853,9.974-0.428,20.916,7.047,28.699c0.291,0.287,4.562,4.358,8.947-0.028C391.921,314.728,393.883,304.125,391.192,294.739z"
		/>
	<path style="fill:#8DC133;" d="M259.696,342.1c-3.567,2.534-6.498,0.341-6.88,0.032c-3.888-3.659-6.67-8.232-8.127-13.291
		c-3.068,10.726,0.022,22.132,8.127,29.759c0.382,0.31,3.313,2.502,6.88-0.032c7.66-7.833,10.127-18.924,7.262-28.928
		C265.62,334.301,263.146,338.571,259.696,342.1z"/>
	<path style="fill:#8DC133;" d="M135.797,362.936c-3.263,2.204-6.364,0.029-6.405,0.001c-4.017-3.701-6.884-8.369-8.365-13.541
		c-0.821,2.861-1.218,5.867-1.145,8.943c0.194,8.132,3.619,15.638,9.51,21.066c0.04,0.028,3.142,2.203,6.405,0
		c5.726-5.72,8.85-13.444,8.654-21.652c-0.062-2.583-0.456-5.1-1.144-7.511C141.936,355.008,139.374,359.363,135.797,362.936z"/>
</g>
<g>
</g>
<g>
</g>
<g>
</g>
<g>
</g>
<g>
</g>
<g>
</g>
<g>
</g>
<g>
</g>
<g>
</g>
<g>
</g>
<g>
</g>
<g>
</g>
<g>
</g>
<g>
</g>
<g>
</g>
</svg>
